<?xml version="1.0" standalone="no"?>
<!DOCTYPE svg PUBLIC "-//W3C//DTD SVG 20010904//EN"
 "http://www.w3.org/TR/2001/REC-SVG-20010904/DTD/svg10.dtd">
<svg version="1.0" xmlns="http://www.w3.org/2000/svg"
 width="260.000000pt" height="260.000000pt" viewBox="0 0 260.000000 260.000000"
 preserveAspectRatio="xMidYMid meet">
<metadata>
Created by potrace 1.11, written by Peter Selinger 2001-2013
</metadata>
<g transform="translate(0.000000,260.000000) scale(0.100000,-0.100000)"
fill="#000000" stroke="none">
<path d="M1251 2584 c-179 -47 -326 -210 -353 -393 -6 -39 -9 -74 -7 -76 6 -6
179 -11 180 -5 0 3 2 12 4 20 1 8 5 29 8 46 7 46 44 111 84 150 149 145 383
100 474 -90 l28 -60 1 -522 c0 -287 -3 -525 -8 -528 -4 -2 -25 39 -45 93 l-37
97 -100 1 -99 1 11 -26 c5 -15 25 -67 43 -117 19 -49 81 -216 140 -370 59
-154 117 -309 130 -345 12 -36 50 -135 83 -220 33 -85 65 -172 72 -193 6 -20
15 -37 18 -37 4 0 24 46 45 103 21 56 43 111 48 123 8 16 1 46 -37 145 -56
149 -110 293 -154 411 l-32 87 25 33 c27 36 63 118 73 171 9 46 11 1029 2
1107 -17 148 -137 305 -278 367 -97 42 -220 53 -319 27z"/>
<path d="M630 1884 c0 -23 5 -34 15 -35 8 0 58 -1 110 -1 156 0 145 -2 145 35
l0 33 -135 1 -135 0 0 -33z"/>
<path d="M1015 1914 c-6 -2 -10 -37 -9 -80 l1 -75 -26 2 c-14 1 -41 1 -58 1
-31 -2 -33 -4 -33 -37 l0 -35 59 0 58 0 -1 -75 -1 -75 35 0 35 0 -1 187 0 188
-25 2 c-13 1 -29 0 -34 -3z"/>
<path d="M1155 1912 c-8 -8 -6 -62 3 -63 10 -1 212 -1 240 0 20 1 23 6 20 34
l-3 32 -127 1 c-70 1 -130 -1 -133 -4z"/>
<path d="M730 1676 l0 -136 35 0 36 0 -3 133 -3 132 -32 3 -33 3 0 -135z"/>
<path d="M1148 1762 c-11 -2 -15 -14 -15 -38 l1 -35 80 3 80 3 1 33 c1 26 -3
32 -20 33 -11 0 -41 1 -66 2 -25 1 -53 1 -61 -1z"/>
<path d="M1155 1602 c-3 -3 -5 -18 -5 -34 0 -31 -8 -30 125 -30 157 0 147 -2
143 35 l-3 32 -127 1 c-70 1 -130 -1 -133 -4z"/>
<path d="M893 1303 c-3 -8 -3 -65 0 -126 4 -84 11 -126 28 -167 80 -194 258
-314 459 -311 68 1 160 21 162 34 1 5 -11 44 -27 88 l-29 80 -46 -8 c-139 -23
-245 21 -315 131 -39 62 -48 96 -49 206 l-2 85 -88 1 c-67 1 -89 -2 -93 -13z"/>
</g>
</svg>
